<?xml version="1.0" standalone="no"?><!DOCTYPE svg PUBLIC "-//W3C//DTD SVG 1.1//EN" "http://www.w3.org/Graphics/SVG/1.1/DTD/svg11.dtd"><svg t="1561379977835" class="icon" viewBox="0 0 1024 1024" version="1.1" xmlns="http://www.w3.org/2000/svg" p-id="5667" xmlns:xlink="http://www.w3.org/1999/xlink" width="400" height="400"><defs><style type="text/css"></style></defs><path d="M926.02 879.616a56.889 56.889 0 0 1-80.44 0c-9.671 8.875-18.66 18.66-28.16 28.16a459.776 459.776 0 0 1-40.96 36.352H214.796a459.776 459.776 0 0 1-41.017-36.409 455.111 455.111 0 0 1-112.47-458.297l-44.43-44.487a56.889 56.889 0 0 1 80.441-80.668l28.047 28.444a34.133 34.133 0 1 0 48.298-48.299l-52.28-52.28a34.133 34.133 0 0 1 48.298-48.3l72.476 72.364a34.133 34.133 0 1 0 48.185-48.242l-31.004-31.118a455.111 455.111 0 0 1 689.38 431.9l65.137 65.707a34.133 34.133 0 1 1-48.298 48.298l-63.66-64.227a34.133 34.133 0 0 0-48.298 48.298l72.42 72.42a56.889 56.889 0 0 1 0 80.384zM47.884 164.978a34.133 34.133 0 1 0 68.267 0 34.133 34.133 0 1 0-68.267 0z" fill="#EAF0F7" p-id="5668"></path><path d="M96.922 938.667H825.1a5.689 5.689 0 0 1 5.689 5.689 5.689 5.689 0 0 1-5.69 5.688H96.923a5.689 5.689 0 0 1-5.689-5.688 5.689 5.689 0 0 1 5.69-5.69z m785.067 0h34.133a5.689 5.689 0 0 1 5.689 5.689 5.689 5.689 0 0 1-5.689 5.688H881.99a5.689 5.689 0 0 1-5.69-5.688 5.689 5.689 0 0 1 5.69-5.69zM512.21 972.8h34.133a5.689 5.689 0 0 1 5.69 5.689 5.689 5.689 0 0 1-5.69 5.689h-34.133a5.689 5.689 0 0 1-5.689-5.69 5.689 5.689 0 0 1 5.689-5.688z m-438.045 39.822h147.912a5.689 5.689 0 0 1 5.688 5.69 5.689 5.689 0 0 1-5.688 5.688H74.166a5.689 5.689 0 0 1-5.688-5.689 5.689 5.689 0 0 1 5.688-5.689z m273.067 0h557.511a5.689 5.689 0 0 1 5.69 5.69 5.689 5.689 0 0 1-5.69 5.688h-557.51a5.689 5.689 0 0 1-5.69-5.689 5.689 5.689 0 0 1 5.69-5.689z m256-39.822h147.911a5.689 5.689 0 0 1 5.69 5.689 5.689 5.689 0 0 1-5.69 5.689h-147.91a5.689 5.689 0 0 1-5.69-5.69 5.689 5.689 0 0 1 5.69-5.688z m-392.533 0h256a5.689 5.689 0 0 1 5.689 5.689 5.689 5.689 0 0 1-5.69 5.689h-256a5.689 5.689 0 0 1-5.688-5.69 5.689 5.689 0 0 1 5.689-5.688zM660.122 56.889a22.756 22.756 0 1 0-22.755-22.756 22.756 22.756 0 0 0 22.755 22.756z m0 11.378a34.133 34.133 0 1 1 34.133-34.134 34.133 34.133 0 0 1-34.133 34.134z m136.533 460.8A22.756 22.756 0 1 0 773.9 506.31a22.756 22.756 0 0 0 22.755 22.756z m0 11.377a34.133 34.133 0 1 1 34.134-34.133 34.133 34.133 0 0 1-34.134 34.133zM552.033 261.69a22.756 22.756 0 1 0-22.755-22.756 22.756 22.756 0 0 0 22.755 22.756z m0 11.378a34.133 34.133 0 1 1 34.134-34.134 34.133 34.133 0 0 1-34.134 34.134zM239.144 443.733a22.756 22.756 0 1 0-22.755-22.755 22.756 22.756 0 0 0 22.755 22.755z m0 11.378a34.133 34.133 0 1 1 34.134-34.133 34.133 34.133 0 0 1-34.134 34.133z m574.578-307.2h34.133a5.689 5.689 0 0 1 5.69 5.689 5.689 5.689 0 0 1-5.69 5.689h-34.133a5.689 5.689 0 0 1-5.689-5.689 5.689 5.689 0 0 1 5.69-5.689z" fill="#CADAEC" p-id="5669"></path><path d="M836.478 136.533v34.134a5.689 5.689 0 0 1-5.69 5.689 5.689 5.689 0 0 1-5.688-5.69v-34.133a5.689 5.689 0 0 1 5.689-5.689 5.689 5.689 0 0 1 5.689 5.69zM375.678 62.578h34.133a5.689 5.689 0 0 1 5.689 5.689 5.689 5.689 0 0 1-5.69 5.689h-34.132a5.689 5.689 0 0 1-5.69-5.69 5.689 5.689 0 0 1 5.69-5.688z" fill="#CADAEC" p-id="5670"></path><path d="M398.433 51.2v34.133a5.689 5.689 0 0 1-5.689 5.69 5.689 5.689 0 0 1-5.689-5.69V51.2a5.689 5.689 0 0 1 5.69-5.689 5.689 5.689 0 0 1 5.688 5.689zM125.367 614.4H159.5a5.689 5.689 0 0 1 5.689 5.689 5.689 5.689 0 0 1-5.69 5.689h-34.133a5.689 5.689 0 0 1-5.688-5.69 5.689 5.689 0 0 1 5.689-5.688z" fill="#CADAEC" p-id="5671"></path><path d="M148.122 603.022v34.134a5.689 5.689 0 0 1-5.689 5.688 5.689 5.689 0 0 1-5.689-5.688v-34.134a5.689 5.689 0 0 1 5.69-5.689 5.689 5.689 0 0 1 5.688 5.69zM722.7 318.578h34.133a5.689 5.689 0 0 1 5.69 5.689 5.689 5.689 0 0 1-5.69 5.689H722.7a5.689 5.689 0 0 1-5.69-5.69 5.689 5.689 0 0 1 5.69-5.688z" fill="#CADAEC" p-id="5672"></path><path d="M745.455 307.2v34.133a5.689 5.689 0 0 1-5.689 5.69 5.689 5.689 0 0 1-5.688-5.69V307.2a5.689 5.689 0 0 1 5.688-5.689 5.689 5.689 0 0 1 5.69 5.689z" fill="#CCDBEC" p-id="5673"></path><path d="M506.522 859.022h73.956v45.511h-73.956v-45.51z" fill="#CADAEC" p-id="5674"></path><path d="M517.9 893.156h51.2V870.4h-51.2z m-2.845-34.134h56.89a8.533 8.533 0 0 1 8.533 8.534V896a8.533 8.533 0 0 1-8.534 8.533h-56.889a8.533 8.533 0 0 1-8.533-8.533v-28.444a8.533 8.533 0 0 1 8.533-8.534z" fill="#6C7C9D" p-id="5675"></path><path d="M711.322 859.022h73.956v45.511h-73.956v-45.51z" fill="#CADAEC" p-id="5676"></path><path d="M722.7 893.156h51.2V870.4h-51.2z m-2.845-34.134h56.89a8.533 8.533 0 0 1 8.533 8.534V896a8.533 8.533 0 0 1-8.534 8.533h-56.889a8.533 8.533 0 0 1-8.533-8.533v-28.444a8.533 8.533 0 0 1 8.533-8.534z" fill="#6C7C9D" p-id="5677"></path><path d="M647.208 626.631L425.114 336.84l15.303-14.507 273.579 304.3h-66.788z" fill="#FFFFFF" p-id="5678"></path><path d="M745.91 645.177l20.48-26.226a5.689 5.689 0 0 1 7.965-0.967l17.635 14.393a5.689 5.689 0 0 1 0.91 7.907l-20.65 26.397z" fill="#CADAEC" p-id="5679"></path><path d="M770.77 658.603l17.807-21.22-17.066-15.019-17.807 21.22z m-8.248-43.52a11.378 11.378 0 0 1 16.043-1.423l17.066 15.02a11.378 11.378 0 0 1 1.195 15.871l-25.259 30.151-34.133-30.037z" fill="#6C7C9D" p-id="5680"></path><path d="M369.97 326.27l56.653-47.538 29.254 34.863-56.653 47.538-29.254-34.863z" fill="#CADAEC" p-id="5681"></path><path d="M399.97 353.166l47.9-40.277-21.96-26.169-47.957 40.22z m-29.242-34.873l47.958-40.22a11.378 11.378 0 0 1 16.042 1.422l21.96 26.169a11.378 11.378 0 0 1-1.366 15.986l-47.957 40.22a11.378 11.378 0 0 1-16.043-1.422l-21.96-26.169a11.378 11.378 0 0 1 1.31-15.986z" fill="#6C7C9D" p-id="5682"></path><path d="M370.33 272.1l1.764-1.48a22.756 22.756 0 0 1 32.085 2.788l10.98 13.084a5.689 5.689 0 0 1-0.683 8.022l-27.933 23.438a5.689 5.689 0 0 1-8.02-0.683l-10.98-13.084a22.756 22.756 0 0 1 2.787-32.085z" fill="#FFFFFF" p-id="5683"></path><path d="M371.923 300.544l10.98 13.084 27.932-23.495-10.98-13.084A17.067 17.067 0 0 0 375.678 275l-1.764 1.479a17.067 17.067 0 0 0-1.991 24.064z m-3.413-34.133a28.444 28.444 0 0 1 39.822 3.527l10.98 13.084a11.378 11.378 0 0 1-1.423 16.043l-27.932 23.438a11.378 11.378 0 0 1-16.043-1.422l-10.98-13.085a28.444 28.444 0 0 1 3.528-39.822z" fill="#6C7C9D" p-id="5684"></path><path d="M387.055 290.133a5.689 5.689 0 0 1 5.69 5.69v182.044a5.689 5.689 0 0 1-5.69 5.689 5.689 5.689 0 0 1-5.689-5.69V295.823a5.689 5.689 0 0 1 5.69-5.689z" fill="#6C7C9D" p-id="5685"></path><path d="M390.127 483.556a5.689 5.689 0 0 1-4.039 6.94l-104.39 27.99a5.689 5.689 0 0 1-6.941-4.04 5.689 5.689 0 0 1 4.21-6.94l104.39-27.99a5.689 5.689 0 0 1 6.77 4.04z" fill="#6C7C9D" p-id="5686"></path><path d="M371.468 483.556a5.689 5.689 0 0 0 4.21 6.94l104.39 27.99a5.689 5.689 0 0 0 6.941-4.04 5.689 5.689 0 0 0-4.039-6.94l-104.562-27.99a5.689 5.689 0 0 0-6.94 4.04z" fill="#6C7C9D" p-id="5687"></path><path d="M568.759 625.778H749.21a5.689 5.689 0 0 1 3.64 1.308l38.117 31.915v148.821a5.689 5.689 0 0 1-5.69 5.69H506.523a5.689 5.689 0 0 1-5.689-5.69V683.065l64.17-55.865a5.689 5.689 0 0 1 3.755-1.422z" fill="#FFFFFF" p-id="5688"></path><path d="M749.21 631.467H568.758l-62.236 54.158v122.197h278.756V661.675z m-180.452-11.378H749.21a11.378 11.378 0 0 1 7.282 2.674l40.163 33.621v151.438a11.378 11.378 0 0 1-11.377 11.378H506.522a11.378 11.378 0 0 1-11.378-11.378V680.448l66.105-57.572a11.378 11.378 0 0 1 7.51-2.787z" fill="#6C7C9D" p-id="5689"></path><path d="M591.855 665.6h68.267a5.689 5.689 0 0 1 5.689 5.689V768a5.689 5.689 0 0 1-5.689 5.689H540.655a5.689 5.689 0 0 1-5.688-5.689v-50.802l52.736-50.005a5.689 5.689 0 0 1 4.152-1.593z" fill="#CADAEC" p-id="5690"></path><path d="M540.655 768h119.467v-96.711h-68.267l-51.2 48.355z m51.2-108.089h68.267A11.378 11.378 0 0 1 671.5 671.29V768a11.378 11.378 0 0 1-11.378 11.378H540.655A11.378 11.378 0 0 1 529.278 768v-53.248l54.556-51.712a11.378 11.378 0 0 1 8.021-3.129z" fill="#6C7C9D" p-id="5691"></path><path d="M708.478 659.911H748.3a8.533 8.533 0 0 1 8.533 8.533 8.533 8.533 0 0 1-8.533 8.534h-39.822a8.533 8.533 0 0 1-8.534-8.534 8.533 8.533 0 0 1 8.534-8.533z m0 34.133H748.3a8.533 8.533 0 0 1 8.533 8.534 8.533 8.533 0 0 1-8.533 8.533h-39.822a8.533 8.533 0 0 1-8.534-8.533 8.533 8.533 0 0 1 8.534-8.534z m0 34.134H748.3a8.533 8.533 0 0 1 8.533 8.533 8.533 8.533 0 0 1-8.533 8.533h-39.822a8.533 8.533 0 0 1-8.534-8.533 8.533 8.533 0 0 1 8.534-8.533z m0 34.133H748.3a8.533 8.533 0 0 1 8.533 8.533 8.533 8.533 0 0 1-8.533 8.534h-39.822a8.533 8.533 0 0 1-8.534-8.534 8.533 8.533 0 0 1 8.534-8.533z" fill="#CADAEC" p-id="5692"></path><path d="M699.944 659.911h45.511a5.689 5.689 0 0 1 5.69 5.689 5.689 5.689 0 0 1-5.69 5.689h-45.51a5.689 5.689 0 0 1-5.69-5.689 5.689 5.689 0 0 1 5.69-5.689z m0 34.133h45.511a5.689 5.689 0 0 1 5.69 5.69 5.689 5.689 0 0 1-5.69 5.688h-45.51a5.689 5.689 0 0 1-5.69-5.689 5.689 5.689 0 0 1 5.69-5.689z m0 34.134h45.511a5.689 5.689 0 0 1 5.69 5.689 5.689 5.689 0 0 1-5.69 5.689h-45.51a5.689 5.689 0 0 1-5.69-5.69 5.689 5.689 0 0 1 5.69-5.688z m0 34.133h45.511a5.689 5.689 0 0 1 5.69 5.689 5.689 5.689 0 0 1-5.69 5.689h-45.51a5.689 5.689 0 0 1-5.69-5.689 5.689 5.689 0 0 1 5.69-5.689zM404.748 348.672l197.12 279.324 9.273-6.542L414.02 342.13l-9.273 6.542z m31.175-24.633l275 304.071 8.42-7.623-275-304.071-8.42 7.623z" fill="#6C7C9D" p-id="5693"></path><path d="M267.589 512h216.178v85.333H267.589V512z" fill="#FFFFFF" p-id="5694"></path><path d="M278.966 517.689v73.955h204.8V517.69z m0-11.378h204.8a11.378 11.378 0 0 1 11.378 11.378v73.955a11.378 11.378 0 0 1-11.378 11.378h-204.8a11.378 11.378 0 0 1-11.377-11.378V517.69a11.378 11.378 0 0 1 11.378-11.378z m108.09-17.067a5.689 5.689 0 1 0-5.69-5.688 5.689 5.689 0 0 0 5.69 5.688z m0 11.378a17.067 17.067 0 1 1 17.066-17.066 17.067 17.067 0 0 1-17.067 17.066z" fill="#6C7C9D" p-id="5695"></path><path d="M381.366 483.556a5.689 5.689 0 1 0 11.378 0 5.689 5.689 0 1 0-11.378 0z" fill="#CADAEC" p-id="5696"></path><path d="M222.078 716.8v73.956h204.8V716.8z m0-11.378h204.8a11.378 11.378 0 0 1 11.377 11.378v73.956a11.378 11.378 0 0 1-11.377 11.377h-204.8a11.378 11.378 0 0 1-11.378-11.377V716.8a11.378 11.378 0 0 1 11.378-11.378z m0 113.778v73.956h204.8V819.2z m0-11.378h204.8a11.378 11.378 0 0 1 11.377 11.378v73.956a11.378 11.378 0 0 1-11.377 11.377h-204.8a11.378 11.378 0 0 1-11.378-11.377V819.2a11.378 11.378 0 0 1 11.378-11.378z m256 11.378v45.511h324.266V819.2z m0-11.378h324.266a11.378 11.378 0 0 1 11.378 11.378v45.511a11.378 11.378 0 0 1-11.378 11.378H478.078A11.378 11.378 0 0 1 466.7 864.71V819.2a11.378 11.378 0 0 1 11.378-11.378zM301.722 540.444h136.533a5.689 5.689 0 0 1 5.69 5.69 5.689 5.689 0 0 1-5.69 5.688H301.722a5.689 5.689 0 0 1-5.689-5.689 5.689 5.689 0 0 1 5.69-5.689z" fill="#6C7C9D" p-id="5697"></path><path d="M244.833 739.556h136.534a5.689 5.689 0 0 1 5.688 5.688 5.689 5.689 0 0 1-5.689 5.69H244.833a5.689 5.689 0 0 1-5.689-5.69 5.689 5.689 0 0 1 5.69-5.688z m0 102.4h136.534a5.689 5.689 0 0 1 5.688 5.688 5.689 5.689 0 0 1-5.689 5.69H244.833a5.689 5.689 0 0 1-5.689-5.69 5.689 5.689 0 0 1 5.69-5.688z m56.89-278.756h56.888a5.689 5.689 0 0 1 5.689 5.689 5.689 5.689 0 0 1-5.69 5.689h-56.888a5.689 5.689 0 0 1-5.689-5.69 5.689 5.689 0 0 1 5.69-5.688z m-56.89 199.111h56.89A5.689 5.689 0 0 1 307.41 768a5.689 5.689 0 0 1-5.689 5.689h-56.889a5.689 5.689 0 0 1-5.689-5.689 5.689 5.689 0 0 1 5.69-5.689z m0 102.4h56.89a5.689 5.689 0 0 1 5.688 5.689 5.689 5.689 0 0 1-5.689 5.689h-56.889a5.689 5.689 0 0 1-5.689-5.689 5.689 5.689 0 0 1 5.69-5.689z" fill="#6C7C9D" p-id="5698"></path><path d="M631.678 671.289h28.216v11.662L574.79 768h-34.134v-6.428l91.023-90.283z" fill="#FFFFFF" p-id="5699"></path><path d="M489.455 830.578h312.89v34.133h-312.89z" fill="#CADAEC" p-id="5700"></path></svg>